# This file uses meters as units for non-parametric coordinates.

g default
v -50.000000 -1000.000000 50.000000
v 50.000000 -1000.000000 50.000000
v -50.000000 0.000000 50.000000
v 50.000000 0.000000 50.000000
v -50.000000 0.000000 -50.000000
v 50.000000 0.000000 -50.000000
v -50.000000 -1000.000000 -50.000000
v 50.000000 -1000.000000 -50.000000
vt 0.375000 0.000000
vt 0.625000 0.000000
vt 0.375000 0.250000
vt 0.625000 0.250000
vt 0.375000 0.500000
vt 0.625000 0.500000
vt 0.375000 0.750000
vt 0.625000 0.750000
vt 0.375000 1.000000
vt 0.625000 1.000000
vt 0.875000 0.000000
vt 0.875000 0.250000
vt 0.125000 0.000000
vt 0.125000 0.250000
vn 0.000000 0.000000 1.000000
vn 0.000000 0.000000 1.000000
vn 0.000000 0.000000 1.000000
vn 0.000000 0.000000 1.000000
vn 0.000000 1.000000 0.000000
vn 0.000000 1.000000 0.000000
vn 0.000000 1.000000 0.000000
vn 0.000000 1.000000 0.000000
vn 0.000000 0.000000 -1.000000
vn 0.000000 0.000000 -1.000000
vn 0.000000 0.000000 -1.000000
vn 0.000000 0.000000 -1.000000
vn 0.000000 -1.000000 0.000000
vn 0.000000 -1.000000 0.000000
vn 0.000000 -1.000000 0.000000
vn 0.000000 -1.000000 0.000000
vn 1.000000 0.000000 0.000000
vn 1.000000 0.000000 0.000000
vn 1.000000 0.000000 0.000000
vn 1.000000 0.000000 0.000000
vn -1.000000 0.000000 0.000000
vn -1.000000 0.000000 0.000000
vn -1.000000 0.000000 0.000000
vn -1.000000 0.000000 0.000000
g pCube1
f 1/1/1 2/2/2 4/4/3 3/3/4
f 3/3/5 4/4/6 6/6/7 5/5/8
f 5/5/9 6/6/10 8/8/11 7/7/12
f 7/7/13 8/8/14 2/10/15 1/9/16
f 2/2/17 8/11/18 6/12/19 4/4/20
f 7/13/21 1/1/22 3/3/23 5/14/24
g default
v -27.777779 -27.777779 27.777781
v 27.777779 -27.777779 27.777777
v -27.777779 27.777779 27.777781
v 27.777779 27.777779 27.777781
v -27.777779 27.777781 -27.777779
v 27.777779 27.777781 -27.777779
v -27.777779 -27.777779 -27.777781
v 27.777779 -27.777779 -27.777781
v -37.500000 37.500000 0.000000
v 37.500000 0.000000 -37.500000
v 0.000000 -37.500000 -37.500000
v -37.500000 0.000000 -37.500000
v 37.500000 -37.500000 0.000000
v -37.500000 -37.500000 0.000000
v 0.000000 -37.500000 37.500000
v 37.500000 0.000000 37.500000
v 0.000000 37.500000 37.500000
v -37.500000 0.000000 37.500000
v 37.500000 37.500000 0.000000
v 0.000000 37.500000 -37.500000
v 0.000000 0.000000 50.000000
v 0.000000 50.000000 0.000000
v 0.000000 0.000000 -50.000000
v 0.000000 -50.000000 0.000000
v 50.000000 0.000000 0.000000
v -50.000000 0.000000 0.000000
vt 0.375000 0.000000
vt 0.375000 1.000000
vt 0.625000 0.000000
vt 0.625000 1.000000
vt 0.375000 0.250000
vt 0.625000 0.250000
vt 0.375000 0.500000
vt 0.125000 0.250000
vt 0.625000 0.500000
vt 0.875000 0.250000
vt 0.375000 0.750000
vt 0.125000 0.000000
vt 0.625000 0.750000
vt 0.875000 0.000000
vt 0.500000 0.125000
vt 0.500000 0.375000
vt 0.500000 0.625000
vt 0.500000 0.875000
vt 0.750000 0.125000
vt 0.250000 0.125000
vt 0.500000 0.000000
vt 0.500000 1.000000
vt 0.625000 0.125000
vt 0.500000 0.250000
vt 0.375000 0.125000
vt 0.625000 0.375000
vt 0.750000 0.250000
vt 0.500000 0.500000
vt 0.375000 0.375000
vt 0.250000 0.250000
vt 0.625000 0.625000
vt 0.875000 0.125000
vt 0.500000 0.750000
vt 0.375000 0.625000
vt 0.125000 0.125000
vt 0.625000 0.875000
vt 0.750000 0.000000
vt 0.375000 0.875000
vt 0.250000 0.000000
vn -0.577350 -0.577350 0.577350
vn 0.000000 -0.707107 0.707107
vn 0.000000 0.000000 1.000000
vn -0.707107 -0.000000 0.707107
vn 0.577350 -0.577350 0.577350
vn 0.707107 0.000000 0.707107
vn 0.577350 0.577350 0.577350
vn 0.000000 0.707107 0.707107
vn -0.577350 0.577350 0.577350
vn 0.000000 1.000000 0.000000
vn -0.707107 0.707107 0.000000
vn 0.707107 0.707107 0.000000
vn 0.577350 0.577350 -0.577350
vn 0.000000 0.707107 -0.707107
vn -0.577350 0.577350 -0.577350
vn 0.000000 0.000000 -1.000000
vn -0.707107 0.000000 -0.707107
vn 0.707107 0.000000 -0.707107
vn 0.577350 -0.577350 -0.577350
vn 0.000000 -0.707107 -0.707107
vn -0.577350 -0.577350 -0.577350
vn 0.000000 -1.000000 0.000000
vn -0.707107 -0.707107 0.000000
vn 0.707107 -0.707107 0.000000
vn 1.000000 0.000000 0.000000
vn -1.000000 -0.000000 0.000000
g pCube2
f 9/15/25 23/35/26 29/29/27 26/39/28
f 23/35/26 10/17/29 24/37/30 29/29/27
f 29/29/27 24/37/30 12/20/31 25/38/32
f 26/39/28 29/29/27 25/38/32 11/19/33
f 11/19/33 25/38/32 30/30/34 17/43/35
f 25/38/32 12/20/31 27/40/36 30/30/34
f 30/30/34 27/40/36 14/23/37 28/42/38
f 17/43/35 30/30/34 28/42/38 13/21/39
f 13/21/39 28/42/38 31/31/40 20/48/41
f 28/42/38 14/23/37 18/45/42 31/31/40
f 31/31/40 18/45/42 16/27/43 19/47/44
f 20/48/41 31/31/40 19/47/44 15/25/45
f 15/25/45 19/47/44 32/32/46 22/52/47
f 19/47/44 16/27/43 21/50/48 32/32/46
f 32/32/46 21/50/48 10/18/29 23/36/26
f 22/52/47 32/32/46 23/36/26 9/16/25
f 10/17/29 21/51/48 33/33/49 24/37/30
f 21/51/48 16/28/43 18/46/42 33/33/49
f 33/33/49 18/46/42 14/24/37 27/41/36
f 24/37/30 33/33/49 27/41/36 12/20/31
f 15/26/45 22/53/47 34/34/50 20/49/41
f 22/53/47 9/15/25 26/39/28 34/34/50
f 34/34/50 26/39/28 11/19/33 17/44/35
f 20/49/41 34/34/50 17/44/35 13/22/39
