# This file uses centimeters as units for non-parametric coordinates.

g default
v -0.665078 -0.013625 0.308747
v 0.334922 -0.013625 0.308747
v 0.334922 -0.013625 -0.691253
v -0.665078 0.013625 0.308747
v 0.334922 0.013625 0.308747
v 0.334922 0.013625 -0.691253
vt 0.000000 0.000000
vt 1.000000 0.000000
vt 1.000000 1.000000
vt 0.000000 0.000000
vt 1.000000 0.000000
vt 1.000000 1.000000
vt 0.000000 0.000000
vt 1.000000 0.000000
vt 1.000000 1.000000
vn 0.000000 1.000000 0.000000
vn 0.000000 1.000000 0.000000
vn 0.000000 1.000000 0.000000
vn 0.000000 -1.000000 0.000000
vn 0.000000 -1.000000 0.000000
vn 0.000000 -1.000000 0.000000
vn 0.000000 0.000000 1.000000
vn 0.000000 0.000000 1.000000
vn 0.000000 0.000000 1.000000
vn 0.000000 0.000000 1.000000
vn 1.000000 0.000000 0.000000
vn 1.000000 0.000000 0.000000
vn 1.000000 0.000000 0.000000
vn 1.000000 0.000000 0.000000
vn -0.707107 0.000000 -0.707107
vn -0.707107 0.000000 -0.707107
vn -0.707107 0.000000 -0.707107
vn -0.707107 0.000000 -0.707107
g triangle
f 4/7/1 5/8/2 6/9/3
f 3/6/4 2/5/5 1/4/6
f 4/7/7 1/1/8 2/2/9 5/8/10
f 5/8/11 2/2/12 3/3/13 6/9/14
f 4/7/15 6/9/16 3/3/17 1/1/18
